<svg width="200" height="92" viewBox="0 0 200 92" fill="none" xmlns="http://www.w3.org/2000/svg">
<path d="M16.8337 26.5407C16.9173 26.0307 17.2597 25.7538 17.8611 25.7097C18.4624 25.6657 18.8571 26.9265 19.045 29.4923L19.2541 31.1093L19.6771 40.6004C19.5823 41.2321 19.2944 41.5655 18.8133 41.6007C18.2158 41.4228 17.9024 41.1334 17.8731 40.7325L17.4933 31.4196L16.8337 26.5407ZM23.6773 23.2887C24.2224 22.2008 24.8056 21.6341 25.427 21.5886C26.0684 21.5416 26.5366 21.8802 26.8314 22.6042L26.7999 22.9995L26.8043 23.0596C29.4704 24.5169 30.9679 27.4906 31.2967 31.9806C31.6256 36.4707 30.5313 39.5536 28.0141 41.2292L27.005 41.4845C24.9404 41.6357 23.4399 40.5465 22.5035 38.2169C22.1651 37.1736 21.9592 36.1509 21.8858 35.1486L21.8571 34.7577C21.7045 32.6731 21.9949 29.7599 22.7285 26.0183C22.2475 26.0535 21.9118 25.7355 21.7216 25.0642C21.6937 24.6834 22.3456 24.0915 23.6773 23.2887ZM23.648 34.4452L23.703 35.1969C23.932 38.3239 24.9285 39.8228 26.6925 39.6936L26.7526 39.6892C28.3963 39.5689 29.3248 37.5259 29.5382 33.5604L29.4963 31.7497C29.0639 27.7711 27.9571 25.454 26.176 24.7985L25.6003 24.7802L25.1192 24.8154C24.6734 25.3317 24.2261 27.0674 23.7775 30.0223C23.5943 31.6479 23.5511 33.1222 23.648 34.4452ZM34.6883 22.4823C35.2334 21.3944 35.8166 20.8277 36.438 20.7822C37.0795 20.7352 37.5476 21.0738 37.8425 21.7978L37.811 22.1931L37.8154 22.2532C40.4815 23.7105 41.9789 26.6842 42.3078 31.1742C42.6366 35.6643 41.5424 38.7472 39.0251 40.4228L38.016 40.6781C35.9514 40.8293 34.4509 39.7401 33.5145 37.4105C33.1761 36.3672 32.9702 35.3444 32.8968 34.3422L32.8682 33.9513C32.7155 31.8666 33.006 28.9535 33.7396 25.2119C33.2585 25.2471 32.9228 24.9291 32.7326 24.2578C32.7047 23.877 33.3566 23.2851 34.6883 22.4823ZM34.659 33.6388L34.7141 34.3905C34.9431 37.5175 35.9396 39.0164 37.7035 38.8872L37.7636 38.8828C39.4073 38.7624 40.3359 36.7195 40.5493 32.754L40.5073 30.9433C40.0749 26.9647 38.9681 24.6476 37.187 23.9921L36.6113 23.9738L36.1302 24.009C35.6844 24.5253 35.2371 26.261 34.7885 29.2159C34.6053 30.8415 34.5621 32.3158 34.659 33.6388ZM53.0342 19.0529C53.5901 19.2137 53.8842 19.5146 53.9165 19.9556C52.3106 21.9675 51.3569 24.768 51.0555 28.3571C49.4328 35.3681 48.6824 39.7055 48.8042 41.3692L48.6928 41.4983C48.7383 42.1197 48.3902 42.4575 47.6485 42.5118C47.1929 42.3437 46.954 42.1093 46.932 41.8086C46.8116 40.1649 47.6109 35.5318 49.3299 27.9091C49.868 24.5244 50.4731 22.1928 51.1452 20.9143C51.9034 19.7101 52.5331 19.0896 53.0342 19.0529ZM46.9337 22.4319C48.0963 22.3467 48.849 23.269 49.1919 25.1987L49.2117 25.4693C49.4099 28.1753 48.5761 29.9997 46.7105 30.9425L45.9677 31.1178C44.785 31.2044 43.9753 30.4677 43.5387 28.9076L43.3721 28.285L43.3501 27.9843C43.1989 25.9197 44.0571 24.154 45.9246 22.6871C46.1563 22.5492 46.4927 22.4642 46.9337 22.4319ZM45.1211 27.4012L45.1938 28.3934C45.229 28.8745 45.4029 29.1842 45.7153 29.3225L46.2264 29.2851C47.1714 28.43 47.5969 27.3609 47.503 26.0781L47.4259 25.0257C47.3907 24.5446 47.2406 24.2836 46.9756 24.2425L46.8553 24.2513C45.6229 25.3089 45.0448 26.3589 45.1211 27.4012ZM54.8126 29.7143C55.5142 29.6629 56.0374 30.7531 56.3822 32.985L56.4372 33.7367C56.3934 36.4403 55.8704 37.8288 54.8681 37.9022L54.486 38.0511C52.7822 38.1759 51.6809 36.8963 51.182 34.2122C51.0514 32.4282 51.5932 31.1592 52.8076 30.4053L53.2821 30.2798L54.0404 30.315C54.2144 29.9395 54.4718 29.7393 54.8126 29.7143ZM52.9927 34.1703C53.1786 35.6077 53.6123 36.3014 54.2938 36.2515C54.6252 35.8241 54.7506 35.0593 54.6699 33.9568L54.6148 33.2051L54.3177 31.6247L54.1373 31.6379C53.2715 31.923 52.8899 32.7671 52.9927 34.1703ZM74.6294 18.9828L75.3635 18.6872C76.045 18.6373 76.4518 19.5143 76.584 21.3184L78.0247 28.1957L78.1538 28.3072L81.5191 26.7911C81.9801 26.7573 82.2564 27.0898 82.3478 27.7884C82.386 28.3096 81.1594 29.0342 78.668 29.9623L78.5521 30.0313L78.5609 30.1515C78.5918 30.5725 79.414 32.719 81.0276 36.591L81.032 36.6511C81.0599 37.032 80.7727 37.3754 80.1704 37.6815C79.5891 37.7241 79.1576 37.0604 78.8759 35.6906C78.3415 34.7221 77.6591 33.1095 76.8288 30.8527L76.7085 30.8615C74.1223 31.5951 72.8431 32.1523 72.871 32.5331C71.6567 35.7658 70.6788 37.4093 69.9371 37.4637C69.5162 37.4945 69.2458 37.2422 69.126 36.7069C69.0908 36.2258 69.553 35.2448 70.5126 33.7638L70.9166 32.6762L70.1649 32.7313L69.6024 32.8934C68.8475 32.7673 68.4488 32.4136 68.4063 31.8323C68.6555 31.1087 69.0708 30.7256 69.6522 30.6831L70.4259 30.9287C71.5484 30.8465 72.0795 30.3945 72.0194 29.5726C72.8655 27.0923 73.7355 23.5624 74.6294 18.9828ZM75.3008 24.4352L73.9188 29.9172C75.539 29.4761 76.3381 29.1052 76.316 28.8045C75.7996 25.8799 75.4611 24.4235 75.3008 24.4352ZM84.0588 19.5014C84.5399 19.4661 84.869 19.6939 85.046 20.1848L84.9955 21.972L85.0373 22.5433C85.8423 26.6559 86.3894 29.8603 86.6785 32.1567C87.056 34.2854 87.3651 35.3409 87.6056 35.3233C87.6365 35.7442 87.3055 36.0405 86.6127 36.2122C85.6105 36.2856 84.9611 34.2977 84.6646 30.2486L83.2501 22.4928L83.2303 22.2222C83.1011 20.4582 83.3773 19.5513 84.0588 19.5014ZM104.51 23.1425C105.432 23.075 105.925 23.4822 105.99 24.3642C106.11 24.3554 106.181 24.5013 106.203 24.802L106.323 24.7932L106.267 25.6739L106.832 31.7388L107.004 36.5628C108.808 36.4306 110.117 37.6648 110.933 40.2652C110.972 40.8064 110.624 41.1443 109.888 41.2788C109.548 41.3037 109.112 40.5799 108.581 39.1074C108.137 38.5555 107.655 38.2986 107.134 38.3367L107.013 38.3455C106.685 42.6621 106.28 44.838 105.799 44.8732C105.295 45.9782 104.492 46.571 103.39 46.6518C101.738 46.3898 100.867 45.6375 100.776 44.3947L100.763 44.2143C100.625 42.33 101.818 40.1871 104.343 37.7854L105.233 37.1459L105.115 33.8898L105.06 33.1381L104.94 33.1469C104.322 34.0588 103.702 34.5374 103.08 34.583L102.9 34.5962C101.517 34.6975 100.647 33.6931 100.291 31.583L100.243 30.9215C100.055 28.3557 100.834 26.0617 102.58 24.0395C103.125 23.4958 103.768 23.1968 104.51 23.1425ZM102.018 30.3985L102.124 31.8417C102.252 32.4973 102.427 32.8171 102.647 32.8009L102.948 32.7789C103.509 32.7378 104.05 30.6225 104.569 26.4331L104.459 24.9297C103.256 25.0178 102.443 26.8407 102.018 30.3985ZM102.541 44.1445C102.658 44.6397 102.957 44.8697 103.438 44.8345C104.4 44.7641 104.966 42.9996 105.136 39.541L104.956 39.5543C103.248 41.2714 102.443 42.8015 102.541 44.1445ZM110.534 23.457C111.337 23.4183 112.793 24.7224 114.901 27.3692L114.999 27.8759C115.04 28.4372 113.698 28.9687 110.974 29.4705L110.891 29.5673L110.9 29.6876C111.453 31.4608 111.96 32.3305 112.421 32.2968L112.782 32.2704C113.423 32.2234 114.344 31.4606 115.546 29.9821L115.727 29.9689C116.127 29.9395 116.459 30.2074 116.722 30.7726C116.758 31.2537 115.977 32.1472 114.38 33.4531C113.958 33.746 113.44 33.9754 112.828 34.1411C111.204 34.26 109.96 32.8196 109.095 29.8197C108.163 29.7469 107.674 29.3998 107.629 28.7784C107.596 28.3375 107.916 28.0218 108.587 27.8316L108.596 27.9519L108.888 27.8096L108.833 27.0579C108.664 24.7527 109.231 23.5524 110.534 23.457ZM110.873 25.6087L110.602 25.6285L110.563 26.7498L110.632 27.6819L110.752 27.6731C111.872 27.5508 112.424 27.3894 112.409 27.189C111.831 26.4454 111.319 25.9186 110.873 25.6087ZM121.269 23.3358C122.983 23.3514 123.896 24.1209 124.008 25.6443L124.097 26.0307L124.38 30.7257C124.42 31.2669 124.784 31.9758 125.473 32.8523L125.477 32.9125C125.359 33.5055 125.09 33.8175 124.669 33.8483C123.388 33.4181 122.686 32.3612 122.563 30.6774L122.534 30.2865L122.439 30.233L122.521 30.1061L122.516 30.046L122.303 25.8901C122.26 25.3088 121.988 25.0365 121.487 25.0732L121.126 25.0996C120.153 25.5739 119.813 27.8055 120.105 31.7944C120.207 33.1776 119.906 33.8948 119.205 33.9462C118.664 33.9858 118.358 33.6656 118.288 32.9855L118.068 29.9788C117.783 26.0901 117.981 24.1207 118.663 24.0708L118.957 23.9586L119.595 24.0026C120.11 23.6021 120.668 23.3799 121.269 23.3358ZM128.357 22.1517C129.16 22.113 130.616 23.4171 132.725 26.0639L132.822 26.5706C132.863 27.1319 131.522 27.6634 128.798 28.1652L128.714 28.262L128.723 28.3823C129.276 30.1555 129.783 31.0252 130.244 30.9915L130.605 30.9651C131.246 30.9181 132.168 30.1553 133.369 28.6768L133.55 28.6636C133.951 28.6342 134.283 28.9021 134.546 29.4673C134.581 29.9484 133.8 30.8419 132.203 32.1478C131.781 32.4407 131.264 32.6701 130.651 32.8358C129.027 32.9547 127.783 31.5143 126.919 28.5144C125.986 28.4416 125.497 28.0945 125.452 27.4731C125.42 27.0322 125.739 26.7165 126.41 26.5263L126.419 26.6466L126.711 26.5043L126.656 25.7526C126.487 23.4474 127.054 22.2471 128.357 22.1517ZM128.696 24.3034L128.425 24.3232L128.387 25.4445L128.455 26.3766L128.575 26.3678C129.695 26.2455 130.247 26.0841 130.233 25.8837C129.654 25.1401 129.142 24.6133 128.696 24.3034ZM139.027 20.3123C140.29 20.2198 141.106 21.0467 141.476 22.7931L141.496 23.0637C141.638 25.008 140.766 26.8655 138.881 28.6359C140.127 29.6933 142.204 30.1156 145.11 29.9027C145.561 30.0107 145.805 30.3053 145.84 30.7864C145.88 31.3276 145.549 31.6239 144.847 31.6753C142.883 31.8191 140.781 31.4692 138.543 30.6255L138.607 31.4975C138.758 33.5621 138.393 34.6267 137.511 34.6913C136.889 34.7368 136.491 33.5669 136.317 31.1815L136.145 28.8363L135.993 28.001L136.133 27.0234L135.711 24.1524L135.702 24.0321C135.663 23.4909 135.916 23.0995 136.463 22.8579C137.13 21.2372 137.985 20.3886 139.027 20.3123ZM138.006 27.0072C138.587 26.9646 139.162 25.8745 139.731 23.737L139.637 22.4441L139.247 22.0797L138.977 22.0995C138.139 22.7654 137.815 24.4013 138.006 27.0072ZM151.68 19.6275C152.562 19.5629 153.029 19.8814 153.08 20.5829L152.851 21.174L153.074 26.6896C153.256 29.1752 153.87 30.6819 154.916 31.2099L155.01 31.6565C154.992 32.2422 154.743 32.5527 154.262 32.5879L154.081 32.6011C152.503 31.6889 151.637 30.1805 151.483 28.0757L151.272 28.0912C150.635 30.3949 149.745 31.5886 148.602 31.6723C147.518 31.4494 146.929 30.6966 146.835 29.4137C146.628 26.5873 147.554 23.6881 149.613 20.7159C150.33 20.0387 151.019 19.6759 151.68 19.6275ZM148.641 28.0723L148.582 28.923L148.624 29.4942L148.925 29.4722C150.154 25.6137 150.738 23.2735 150.678 22.4517L150.557 22.4605C149.49 23.8486 148.851 25.7192 148.641 28.0723ZM157.898 12.4915C158.468 12.5707 158.769 12.8308 158.802 13.2718L158.718 14.6079L158.747 14.9988C158.811 15.8808 158.98 16.8055 159.252 17.7731L159.312 17.7687C161.586 16.8968 163.004 16.4403 163.565 16.3992C164.158 16.517 164.47 16.7864 164.501 17.2073C164.551 17.8888 163.884 18.2803 162.501 18.3815L159.456 19.7231C159.654 22.4291 160.214 26.0861 161.136 30.6939C161.055 31.244 160.784 31.5359 160.323 31.5696L160.263 31.574C159.561 31.6254 159.145 30.7491 159.012 28.945C158.654 27.6211 158.219 24.7207 157.71 20.2438L157.169 20.2835C155.276 20.3012 154.302 19.9292 154.246 19.1675C154.23 18.947 154.42 18.661 154.818 18.3094L155.118 18.2874L156.528 18.5469L157.49 18.4765L156.944 14.7379C156.839 13.2946 157.157 12.5458 157.898 12.4915ZM168.29 19.2272C169.094 19.1885 170.55 20.4925 172.658 23.1393L172.755 23.6461C172.797 24.2073 171.455 24.7389 168.731 25.2407L168.647 25.3375L168.656 25.4577C169.209 27.231 169.716 28.1007 170.177 28.0669L170.538 28.0405C171.179 27.9935 172.101 27.2308 173.303 25.7522L173.483 25.739C173.884 25.7097 174.216 25.9776 174.479 26.5427C174.514 27.0238 173.733 27.9173 172.136 29.2233C171.714 29.5162 171.197 29.7455 170.584 29.9113C168.961 30.0302 167.717 28.5897 166.852 25.5899C165.92 25.5171 165.431 25.17 165.385 24.5486C165.353 24.1076 165.672 23.792 166.344 23.6018L166.352 23.722L166.644 23.5797L166.589 22.8281C166.42 20.5229 166.988 19.3226 168.29 19.2272ZM168.629 21.3788L168.359 21.3986L168.32 22.5199L168.388 23.452L168.509 23.4432C169.628 23.3209 170.181 23.1595 170.166 22.9591C169.587 22.2155 169.075 21.6887 168.629 21.3788ZM181.716 12.5005C182.057 12.4755 182.391 12.7735 182.719 13.3944L182.008 21.85L182.18 24.1953C182.359 26.6408 182.829 27.8356 183.591 27.7798C184.109 27.9837 184.384 28.286 184.413 28.6869C184.447 29.148 184.066 29.4479 183.27 29.5868C182.388 29.6514 181.637 28.8903 181.017 27.3033L180.716 27.3253C180.093 29.0033 179.251 29.8812 178.188 29.959C176.945 30.05 176.125 29.1629 175.726 27.2978C175.566 25.1129 176.86 22.6905 179.607 20.0307C180.189 19.9881 180.42 19.155 180.301 17.5314C180.503 14.2318 180.974 12.5548 181.716 12.5005ZM177.483 26.9273L177.542 27.7391L178.058 28.185L178.239 28.1718C178.88 28.1248 179.49 26.1354 180.069 22.2036L179.888 22.2168C178.198 24.1745 177.396 25.7447 177.483 26.9273Z" fill="url(#paint0_linear_0_1)"/>
<path d="M154.25 86.6966C156.74 85.5205 158.91 83.269 160.326 80.6988C160.974 79.5063 161.494 78.2692 161.777 76.9499C162.054 75.7132 162.051 74.3795 161.958 73.1561C161.913 72.5731 161.815 72.0003 161.707 71.4525C161.562 70.7497 161.416 70.0469 161.209 69.3792C160.796 68.1014 159.949 67.0697 159.017 66.2634C158.029 65.4096 156.882 64.7839 155.709 64.2908C154.407 63.753 152.992 63.318 151.569 63.1633C150.092 63.0187 148.509 63.3472 147.212 64.4559C146.089 65.4266 145.431 66.8993 145.577 68.3678C145.706 69.6887 146.409 70.8408 147.328 71.5571C148.344 72.3357 149.631 72.5283 150.94 72.2178C153.695 71.5591 156.177 68.9341 157.653 66.2711C158.42 64.8933 159.011 63.3407 159.169 61.779C159.321 60.1021 158.93 58.5766 158.104 57.2971C157.212 55.9377 155.993 54.8617 154.83 53.8332C153.577 52.7172 152.275 51.6689 150.904 50.7384C148.192 48.8597 145.261 47.3018 142.196 46.0945C141.433 45.8008 140.682 45.5396 139.9 45.296C139.203 45.0822 138.727 46.3344 139.423 46.5481C145.275 48.4128 150.623 51.6048 155.116 55.8894C156.096 56.8258 157.143 57.842 157.675 59.1897C158.148 60.3748 158.131 61.7586 157.774 63.0805C157.388 64.4776 156.713 65.8027 155.883 66.9604C155.094 68.0755 154.133 69.131 153.043 69.8864C151.985 70.6242 150.8 71.1196 149.612 71.047C148.637 70.9914 147.764 70.3476 147.21 69.503C146.7 68.6733 146.518 67.6177 146.943 66.6309C147.484 65.4012 148.736 64.7305 149.859 64.5255C151.297 64.2599 152.745 64.7348 154.051 65.1325C155.113 65.4731 156.148 65.9464 157.114 66.5375C158.049 67.1461 158.936 67.88 159.58 68.8696C160.19 69.8192 160.401 71.0549 160.639 72.2154C160.854 73.311 160.88 74.4545 160.802 75.6182C160.752 76.7068 160.464 77.6557 160.042 78.7C159.09 81.0066 157.436 83.1819 155.464 84.5948C154.93 84.9762 154.403 85.275 153.833 85.559C153.532 85.7097 153.392 86.1429 153.499 86.4355C153.618 86.7605 153.95 86.8474 154.25 86.6966Z" fill="white"/>
<path d="M146.431 55.8471C144.532 53.6841 142.827 51.3329 141.274 48.8364C140.899 48.2241 140.513 47.5793 140.169 46.9494C140.043 46.707 139.852 46.4421 139.797 46.1394C139.757 45.9268 139.819 45.8917 140.017 45.8187C140.307 45.693 140.601 45.6248 140.894 45.5567C141.249 45.4533 141.617 45.3825 141.984 45.3117C142.675 45.1552 143.369 45.0561 144.075 44.9896C145.635 44.8513 147.202 44.8856 148.702 45.0952C149 45.1422 149.333 44.7762 149.362 44.4458C149.41 44.0654 149.188 43.8181 148.859 43.7887C147.38 43.5866 145.866 43.5421 144.328 43.6879C143.548 43.7571 142.759 43.8513 141.993 44.0105C141.28 44.1596 140.524 44.2938 139.837 44.5654C139.067 44.8648 138.514 45.5515 138.614 46.4371C138.722 47.2401 139.237 47.9297 139.602 48.567C140.411 49.9541 141.281 51.3061 142.202 52.5904C143.235 54.027 144.308 55.4211 145.463 56.7299C145.663 56.9697 146.013 57.0066 146.278 56.7583C146.555 56.5425 146.64 56.0619 146.431 55.8471Z" fill="white"/>
<path d="M190.873 1.43922L187.929 7.66242" stroke="white" stroke-width="1.03959" stroke-linecap="round"/>
<path d="M195.33 6.35797L189.669 10.2753" stroke="white" stroke-width="1.03959" stroke-linecap="round"/>
<path d="M198.362 12.2625L191.501 12.8244" stroke="white" stroke-width="1.03959" stroke-linecap="round"/>
<path d="M11.0869 56.2215L11.9754 49.3946" stroke="white" stroke-width="1.03959" stroke-linecap="round"/>
<path d="M5.33389 52.9109L9.51682 47.4429" stroke="white" stroke-width="1.03959" stroke-linecap="round"/>
<path d="M0.633301 48.2241L6.98984 45.5801" stroke="white" stroke-width="1.03959" stroke-linecap="round"/>
<defs>
<linearGradient id="paint0_linear_0_1" x1="14.5947" y1="35.0414" x2="34.195" y2="-29.3932" gradientUnits="userSpaceOnUse">
<stop stop-color="#FF706D"/>
<stop offset="0.518" stop-color="#FF6C26"/>
<stop offset="0.999" stop-color="#FB6886"/>
</linearGradient>
</defs>
</svg>
