<svg width="26" height="32" viewBox="0 0 26 32" fill="none" xmlns="http://www.w3.org/2000/svg">
<g clip-path="url(#clip0_249_536)">
<path d="M24.5646 31.1468C23.9886 31.5781 23.3146 31.7868 22.6465 31.7868C21.6737 31.7868 20.713 31.3452 20.0846 30.5068L12.4046 20.2668C11.803 19.4649 10.8462 18.9868 9.84456 18.9868H3.44456C1.67688 18.9868 0.24456 20.4191 0.24456 22.1868V15.7868C0.24456 14.0191 1.67688 12.5868 3.44456 12.5868H9.84456C12.85 12.5868 15.721 14.0223 17.5246 16.4268L25.2046 26.6668C26.265 28.0805 25.9783 30.0863 24.5646 31.1468Z" fill="url(#paint0_linear_249_536)"/>
<path d="M6.64456 18.9868V28.5868C6.64456 30.3538 5.2116 31.7868 3.44456 31.7868C1.67752 31.7868 0.24456 30.3538 0.24456 28.5868V22.1868C0.24456 20.4191 1.67688 18.9868 3.44456 18.9868H6.64456Z" fill="url(#paint1_linear_249_536)"/>
<path d="M19.4446 9.38674C19.4446 7.62226 18.009 6.18674 16.2446 6.18674H3.44456C1.67688 6.18674 0.24456 4.75378 0.24456 2.98674C0.24456 1.2197 1.67688 -0.213257 3.44456 -0.213257H9.84456C15.1463 -0.213257 19.4446 4.08498 19.4446 9.38674Z" fill="url(#paint2_linear_249_536)"/>
<path d="M25.8446 9.38677V12.5868C25.8446 14.3538 24.4116 15.7868 22.6446 15.7868C20.8775 15.7868 19.4446 14.3538 19.4446 12.5868V9.38677C19.4446 4.08501 15.1463 -0.213226 9.84456 -0.213226H16.2446C18.1966 -0.213226 20.0148 0.372374 21.5322 1.37781C24.1287 3.09813 25.8446 6.04597 25.8446 9.38677Z" fill="url(#paint3_linear_249_536)"/>
</g>
<defs>
<linearGradient id="paint0_linear_249_536" x1="1.84514" y1="22.1868" x2="22.4016" y2="22.1868" gradientUnits="userSpaceOnUse">
<stop stop-color="#FF9518"/>
<stop offset="0.518" stop-color="#FF5D18"/>
<stop offset="0.999" stop-color="#DB1D10"/>
</linearGradient>
<linearGradient id="paint1_linear_249_536" x1="3.44456" y1="31.4344" x2="3.44456" y2="18.8568" gradientUnits="userSpaceOnUse">
<stop stop-color="#FF9518"/>
<stop offset="0.518" stop-color="#FF5D18"/>
<stop offset="0.999" stop-color="#DB1D10"/>
</linearGradient>
<linearGradient id="paint2_linear_249_536" x1="0.24456" y1="4.58674" x2="19.4446" y2="4.58674" gradientUnits="userSpaceOnUse">
<stop stop-color="#FF9518"/>
<stop offset="0.518" stop-color="#FF5D18"/>
<stop offset="0.999" stop-color="#DB1D10"/>
</linearGradient>
<linearGradient id="paint3_linear_249_536" x1="17.8446" y1="1.07586" x2="17.8446" y2="15.2844" gradientUnits="userSpaceOnUse">
<stop stop-color="#FF9518"/>
<stop offset="0.518" stop-color="#FF5D18"/>
<stop offset="0.999" stop-color="#FF5D18"/>
</linearGradient>
<clipPath id="clip0_249_536">
<rect width="25.6002" height="32" fill="white" transform="translate(0.24456 -0.213257)"/>
</clipPath>
</defs>
</svg>
