<svg width="80" height="28" viewBox="0 0 80 28" fill="none" xmlns="http://www.w3.org/2000/svg">
<g filter="url(#filter0_d_249_535)">
<rect x="4.66433" y="1.03333" width="74.52" height="21.6133" stroke="black" shape-rendering="crispEdges"/>
<g clip-path="url(#clip0_249_535)">
<path d="M16.953 22.227L11.6576 13.6679H7.49472V22.227H4.16433V0.0133362H13.5227C17.7523 0.0133362 20.6497 2.74428 20.6497 6.84071C20.6497 10.8371 17.9521 12.9686 15.1212 13.335L20.8162 22.2271H16.9529L16.953 22.227ZM13.0898 2.94417H7.49472V10.7372H13.0898C15.4876 10.7372 17.2194 9.17196 17.2194 6.84071C17.2194 4.50946 15.4876 2.94417 13.0898 2.94417Z" fill="white"/>
<path d="M21.7464 14.1675C21.7464 9.53822 24.877 5.7417 29.8725 5.7417C34.9014 5.7417 37.9986 9.53829 37.9986 14.1675C37.9986 18.8301 34.9014 22.6267 29.8725 22.6267C24.877 22.6267 21.7464 18.8301 21.7464 14.1675ZM34.8681 14.1675C34.8681 11.1369 33.103 8.40599 29.8725 8.40599C26.6753 8.40599 24.877 11.1369 24.877 14.1675C24.877 17.2315 26.6753 19.9624 29.8725 19.9624C33.103 19.9624 34.8681 17.2315 34.8681 14.1675Z" fill="white"/>
<path d="M50.7848 22.227V20.4618C49.5193 21.8607 47.6876 22.6266 45.5228 22.6266C42.8584 22.6266 39.9276 20.8282 39.9276 17.298C39.9276 13.6346 42.8251 12.036 45.5228 12.036C47.6875 12.036 49.5525 12.7353 50.7848 14.1673V11.503C50.7848 9.50483 49.1529 8.30588 46.855 8.30588C45.0232 8.30588 43.458 9.00526 42.0259 10.4373L40.727 8.37246C42.5255 6.60736 44.7235 5.74146 47.3212 5.74146C50.8182 5.74146 53.7822 7.27345 53.7822 11.3698V22.2269H50.7849L50.7848 22.227ZM50.7848 15.9659C49.8856 14.7669 48.3203 14.1342 46.6551 14.1342C44.4903 14.1342 42.9584 15.433 42.9584 17.3313C42.9584 19.2297 44.4903 20.5285 46.6551 20.5285C48.3203 20.5285 49.8856 19.8958 50.7848 18.6968V15.9659Z" fill="white"/>
<path d="M57.6763 17.9308C58.7753 19.1297 60.9067 20.2288 63.0715 20.2288C65.3361 20.2288 66.5351 19.2963 66.5351 17.9308C66.5351 16.3322 64.7034 15.7994 62.6385 15.3331C59.9077 14.7003 56.7104 13.9676 56.7104 10.504C56.7104 7.93962 58.9085 5.74161 62.8384 5.74161C65.6025 5.74161 67.6008 6.74067 68.9663 8.03957L67.6342 10.1377C66.7017 9.00542 64.9033 8.17273 62.8717 8.17273C60.8402 8.17273 59.5746 8.97205 59.5746 10.2709C59.5746 11.6697 61.3064 12.1359 63.3046 12.6022C66.1022 13.2349 69.4326 14.001 69.4326 17.6977C69.4326 20.4618 67.1679 22.6266 62.9383 22.6266C60.2407 22.6266 57.8761 21.7941 56.2442 20.1289L57.6763 17.9308Z" fill="white"/>
<path d="M72.8934 18.6636V8.77226H70.2291V6.14118H72.8934V1.74515H75.8908V6.14125H79.1546V8.77233H75.8908V17.9975C75.8908 19.1298 76.4236 19.9624 77.4561 19.9624C78.1554 19.9624 78.7882 19.6627 79.0879 19.3297L79.8539 21.5944C79.2212 22.1938 78.2887 22.6268 76.7233 22.6268C74.1923 22.6268 72.8934 21.1948 72.8934 18.6637L72.8934 18.6636Z" fill="white"/>
</g>
</g>
<defs>
<filter id="filter0_d_249_535" x="0.16433" y="0.0133362" width="83.6896" height="31.1333" filterUnits="userSpaceOnUse" color-interpolation-filters="sRGB">
<feFlood flood-opacity="0" result="BackgroundImageFix"/>
<feColorMatrix in="SourceAlpha" type="matrix" values="0 0 0 0 0 0 0 0 0 0 0 0 0 0 0 0 0 0 127 0" result="hardAlpha"/>
<feOffset dy="4"/>
<feGaussianBlur stdDeviation="2"/>
<feComposite in2="hardAlpha" operator="out"/>
<feColorMatrix type="matrix" values="0 0 0 0 0 0 0 0 0 0 0 0 0 0 0 0 0 0 0.25 0"/>
<feBlend mode="normal" in2="BackgroundImageFix" result="effect1_dropShadow_249_535"/>
<feBlend mode="normal" in="SourceGraphic" in2="effect1_dropShadow_249_535" result="shape"/>
</filter>
<clipPath id="clip0_249_535">
<rect width="75.6896" height="22.6133" fill="white" transform="translate(4.16433 0.0133362)"/>
</clipPath>
</defs>
</svg>
